<svg xmlns="http://www.w3.org/2000/svg" viewBox="0 0 24 24" width="32" height="32">
  <rect width="24" height="24" rx="6" fill="#0f766e"/>
  <g transform="translate(12 12) scale(0.86) translate(-12 -12)">
    <path d="M12 6.6C9.7 5.2 6.7 4.9 4.2 5.6c-.5.15-.8.6-.8 1.1v10.1c0 .7.66 1.2 1.35 1.03C6.9 17.3 9.6 17.6 12 19V6.6Z" fill="#ffffff"/>
    <path d="M12 6.6c2.3-1.4 5.3-1.7 7.8-1 .5.15.8.6.8 1.1v10.1c0 .7-.66 1.2-1.35 1.03C16.7 17.3 14 17.6 12 19V6.6Z" fill="#ffffff" opacity="0.82"/>
    <path d="M15.1 4.2h3.4v6.3l-1.7-1.25L15.1 10.5V4.2Z" fill="#bff23f"/>
  </g>
</svg>
